<svg width="212" height="152" viewBox="0 0 212 152" fill="none" xmlns="http://www.w3.org/2000/svg">
<path d="M211.667 68.449C211.667 70.658 209.876 72.449 207.667 72.449H201V98.897C201 112.3 193.915 124.075 183.298 130.689L191.297 145.567C192.343 147.513 191.614 149.938 189.668 150.985C189.065 151.308 188.417 151.463 187.777 151.463C186.352 151.463 184.973 150.699 184.251 149.357L176.087 134.171C172.169 135.566 167.956 136.332 163.565 136.332H48.102C44.347 136.332 40.722 135.77 37.3 134.737L29.44 149.357C28.718 150.7 27.338 151.463 25.914 151.463C25.274 151.463 24.626 151.309 24.023 150.985C22.077 149.938 21.348 147.513 22.394 145.567L29.906 131.595C18.441 125.189 10.667 112.936 10.667 98.896V72.448H4C1.791 72.448 0 70.657 0 68.448C0 66.239 1.791 64.448 4 64.448H14.667H197H207.667C209.876 64.449 211.667 66.24 211.667 68.449ZM4 30.712H47.083C50.667 30.712 53.583 33.628 53.583 37.212V45.712C53.583 47.921 55.374 49.712 57.583 49.712C59.792 49.712 61.583 47.921 61.583 45.712V37.212C61.583 29.217 55.078 22.712 47.083 22.712H4C1.791 22.712 0 24.503 0 26.712C0 28.921 1.791 30.712 4 30.712ZM9.25 18.5H16.083C18.292 18.5 20.083 16.709 20.083 14.5V4C20.083 1.791 18.292 0 16.083 0H9.25C4.149 0 0 4.149 0 9.25C0 14.351 4.149 18.5 9.25 18.5Z" fill="#98C1D9"/>
</svg>
